<?xml version="1.0" encoding="UTF-8" standalone="no"?>
<!-- Generator: Adobe Illustrator 17.0.0, SVG Export Plug-In . SVG Version: 6.00 Build 0)  -->

<svg
   xmlns:dc="http://purl.org/dc/elements/1.1/"
   xmlns:cc="http://creativecommons.org/ns#"
   xmlns:rdf="http://www.w3.org/1999/02/22-rdf-syntax-ns#"
   xmlns:svg="http://www.w3.org/2000/svg"
   xmlns="http://www.w3.org/2000/svg"
   xmlns:sodipodi="http://sodipodi.sourceforge.net/DTD/sodipodi-0.dtd"
   xmlns:inkscape="http://www.inkscape.org/namespaces/inkscape"
   version="1.1"
   id="Layer_1"
   x="0px"
   y="0px"
   width="512px"
   height="512px"
   viewBox="0 0 512 512"
   enable-background="new 0 0 512 512"
   xml:space="preserve"
   inkscape:version="0.91 r13725"
   sodipodi:docname="a8c25f5cfd0c0bd552cdba41f5fb3d4f.svg"><metadata
   id="metadata33"><rdf:RDF><cc:Work
       rdf:about=""><dc:format>image/svg+xml</dc:format><dc:type
         rdf:resource="http://purl.org/dc/dcmitype/StillImage" /></cc:Work></rdf:RDF></metadata><defs
   id="defs31">
	
	
	
	
	
	
	
	
	
	
	
	
</defs><sodipodi:namedview
   pagecolor="#ffffff"
   bordercolor="#666666"
   borderopacity="1"
   objecttolerance="10"
   gridtolerance="10"
   guidetolerance="10"
   inkscape:pageopacity="0"
   inkscape:pageshadow="2"
   inkscape:window-width="1366"
   inkscape:window-height="706"
   id="namedview29"
   showgrid="false"
   inkscape:zoom="0.98440528"
   inkscape:cx="300.24149"
   inkscape:cy="558.08534"
   inkscape:window-x="-8"
   inkscape:window-y="-8"
   inkscape:window-maximized="1"
   inkscape:current-layer="Layer_1" />
<path
   style="fill:#070405"
   inkscape:connector-curvature="0"
   id="path5"
   d="m 48.467027,206.7355 111.494563,0 c 24.54587,0 44.44403,-19.89816 44.44403,-44.44403 l 0,-111.111943 C 204.40562,26.633655 184.50746,6.7355 159.96159,6.7355 l -111.494563,0 c -24.545872,0 -44.4440269,19.898155 -44.4440269,44.444027 l 0,111.111943 c -0.00187,24.54587 19.8981549,44.44403 44.4440269,44.44403 z"
   inkscape:export-xdpi="90"
   inkscape:export-ydpi="90" /><g
   id="g4173"
   transform="matrix(1.8764319,0,0,1.8764319,-179.4064,-162.04026)"
   inkscape:export-xdpi="90"
   inkscape:export-ydpi="90"><path
     d="m 239.413,1.754 c -8.289,0 -15.008,6.719 -15.008,15.008 l 0,76.618 c 0,8.288 6.719,15.008 15.008,15.008 8.288,0 15.007,-6.719 15.007,-15.008 l 0,-76.619 c 0,-8.288 -6.719,-15.007 -15.007,-15.007 z"
     id="path7"
     inkscape:connector-curvature="0"
     style="fill:#070405" /><path
     d="m 284.435,1.754 c -8.288,0 -15.008,6.719 -15.008,15.008 l 0,76.618 c 0,8.288 6.719,15.008 15.008,15.008 8.289,0 15.008,-6.719 15.008,-15.008 l 0,-76.619 c 0,-8.288 -6.719,-15.007 -15.008,-15.007 z"
     id="path9"
     inkscape:connector-curvature="0"
     style="fill:#070405" /></g><path
   style="fill:#070405"
   inkscape:connector-curvature="0"
   id="path11"
   d="m 421.78736,106.02886 c 2.7215,1.57147 5.76143,2.35814 8.79948,2.35814 3.03805,0 6.0761,-0.78667 8.79948,-2.35814 L 582.10914,23.626888 c 5.44489,-3.14294 8.79949,-8.953071 8.79949,-15.2408245 0,-6.2858802 -3.3546,-12.0960114 -8.79949,-15.2389515 l -142.72469,-82.40197 c -2.72338,-1.57147 -5.75956,-2.358142 -8.79948,-2.358142 -3.03805,0 -6.07611,0.786672 -8.79949,2.358142 -5.44489,3.14294 -8.79948,8.953071 -8.79948,15.238951 l 0,164.803941 c 0.004,6.287753 3.35834,12.097886 8.80136,15.240826 z"
   inkscape:export-xdpi="90"
   inkscape:export-ydpi="90" /><g
   id="g4185"><path
     d="m 503.28,247.864 -76.2,-43.994 c -1.454,-0.839 -3.075,-1.259 -4.698,-1.259 -1.622,0 -3.244,0.42 -4.698,1.259 -2.907,1.678 -4.698,4.78 -4.698,8.136 l 0,87.988 c 0,3.357 1.791,6.458 4.698,8.136 1.453,0.839 3.076,1.259 4.698,1.259 1.622,0 3.244,-0.419 4.698,-1.259 l 76.199,-43.994 c 2.907,-1.678 4.698,-4.78 4.698,-8.136 0.001,-3.357 -1.791,-6.458 -4.697,-8.136 z"
     id="path13"
     inkscape:connector-curvature="0"
     style="fill:#070405" /><path
     d="m 411.415,256 c 0,-3.357 -1.791,-6.458 -4.698,-8.136 l -76.2,-43.994 c -1.453,-0.839 -3.075,-1.259 -4.698,-1.259 -1.622,0 -3.244,0.42 -4.698,1.259 -2.907,1.678 -4.698,4.78 -4.698,8.136 l 0,87.988 c 0,3.357 1.791,6.458 4.698,8.136 1.454,0.839 3.076,1.259 4.698,1.259 1.622,0 3.244,-0.419 4.698,-1.259 l 76.2,-43.994 c 2.908,-1.678 4.698,-4.779 4.698,-8.136 z"
     id="path15"
     inkscape:connector-curvature="0"
     style="fill:#070405" /></g><g
   id="g4189"><path
     d="m 8.72,264.173 76.199,43.994 c 1.454,0.839 3.076,1.259 4.698,1.259 1.622,0 3.244,-0.419 4.697,-1.259 2.907,-1.678 4.698,-4.78 4.698,-8.136 l 0,-87.988 c 0,-3.356 -1.791,-6.458 -4.698,-8.136 -1.453,-0.839 -3.075,-1.259 -4.697,-1.259 -1.622,0 -3.244,0.42 -4.698,1.259 L 8.72,247.9 c -2.907,1.678 -4.698,4.78 -4.698,8.136 0,3.357 1.792,6.459 4.698,8.137 z"
     id="path17"
     inkscape:connector-curvature="0"
     style="fill:#070405" /><path
     d="m 190.877,203.906 c -1.453,-0.839 -3.076,-1.259 -4.697,-1.259 -1.622,0 -3.244,0.42 -4.698,1.259 L 105.283,247.9 c -2.907,1.678 -4.698,4.78 -4.698,8.136 0,3.357 1.791,6.458 4.698,8.136 l 76.199,43.994 c 1.454,0.839 3.076,1.259 4.698,1.259 1.621,0 3.244,-0.419 4.697,-1.259 2.907,-1.678 4.698,-4.78 4.698,-8.136 l 0,-87.988 c 0,-3.356 -1.791,-6.458 -4.698,-8.136 z"
     id="path19"
     inkscape:connector-curvature="0"
     style="fill:#070405" /></g><g
   id="g4177"
   transform="matrix(1.873045,0,0,1.873045,-3.511387,-445.59432)"
   inkscape:export-xdpi="90"
   inkscape:export-ydpi="90"><path
     d="m 19.03,403.686 c -8.288,0 -15.008,6.719 -15.008,15.008 l 0,76.618 c 0,8.288 6.719,15.008 15.008,15.008 8.289,0 15.008,-6.719 15.008,-15.008 l 0,-38.309 0,-38.309 c 0,-8.289 -6.719,-15.008 -15.008,-15.008 z"
     id="path21"
     inkscape:connector-curvature="0"
     style="fill:#070405" /><path
     d="m 124.33,404.872 c -1.454,-0.839 -3.076,-1.259 -4.698,-1.259 -1.622,0 -3.244,0.42 -4.697,1.259 l -76.2,43.994 c -2.907,1.678 -4.698,4.78 -4.698,8.136 0,3.356 1.791,6.458 4.698,8.136 l 76.2,43.994 c 1.453,0.839 3.075,1.259 4.697,1.259 1.622,0 3.244,-0.42 4.698,-1.259 2.907,-1.678 4.697,-4.78 4.697,-8.136 l 0,-87.988 c 0.001,-3.356 -1.79,-6.458 -4.697,-8.136 z"
     id="path23"
     inkscape:connector-curvature="0"
     style="fill:#070405" /></g><g
   id="g4181"
   transform="matrix(1.873045,0,0,1.873045,-334.35267,-445.59432)"
   inkscape:export-xdpi="90"
   inkscape:export-ydpi="90"><path
     d="m 492.97,403.686 c -8.288,0 -15.008,6.719 -15.008,15.008 l 0,38.309 0,38.309 c 0,8.288 6.719,15.008 15.008,15.008 8.288,0 15.008,-6.719 15.008,-15.008 l 0,-76.618 c 0,-8.289 -6.72,-15.008 -15.008,-15.008 z"
     id="path25"
     inkscape:connector-curvature="0"
     style="fill:#070405" /><path
     d="m 473.265,448.866 -76.2,-43.994 c -1.453,-0.839 -3.075,-1.259 -4.697,-1.259 -1.622,0 -3.244,0.42 -4.698,1.259 -2.907,1.678 -4.697,4.78 -4.697,8.136 l 0,87.988 c 0,3.356 1.791,6.458 4.697,8.136 1.454,0.839 3.076,1.259 4.698,1.259 1.622,0 3.244,-0.42 4.697,-1.259 l 76.2,-43.994 c 2.907,-1.678 4.697,-4.78 4.697,-8.136 0,-3.356 -1.791,-6.458 -4.697,-8.136 z"
     id="path27"
     inkscape:connector-curvature="0"
     style="fill:#070405" /></g>
</svg>