<?xml version="1.0" encoding="UTF-8" standalone="no"?>
<!-- Created with Inkscape (http://www.inkscape.org/) -->

<svg
   xmlns:dc="http://purl.org/dc/elements/1.1/"
   xmlns:cc="http://creativecommons.org/ns#"
   xmlns:rdf="http://www.w3.org/1999/02/22-rdf-syntax-ns#"
   xmlns:svg="http://www.w3.org/2000/svg"
   xmlns="http://www.w3.org/2000/svg"
   xmlns:sodipodi="http://sodipodi.sourceforge.net/DTD/sodipodi-0.dtd"
   xmlns:inkscape="http://www.inkscape.org/namespaces/inkscape"
   width="210mm"
   height="297mm"
   viewBox="0 0 744.09448819 1052.3622047"
   id="svg4152"
   version="1.1"
   inkscape:version="0.91 r13725"
   sodipodi:docname="drawing.svg">
  <defs
     id="defs4154" />
  <sodipodi:namedview
     id="base"
     pagecolor="#ffffff"
     bordercolor="#666666"
     borderopacity="1.0"
     inkscape:pageopacity="0.0"
     inkscape:pageshadow="2"
     inkscape:zoom="0.5326779"
     inkscape:cx="225.90498"
     inkscape:cy="537.67794"
     inkscape:document-units="px"
     inkscape:current-layer="layer1"
     showgrid="false"
     inkscape:window-width="1366"
     inkscape:window-height="706"
     inkscape:window-x="-8"
     inkscape:window-y="-8"
     inkscape:window-maximized="1" />
  <metadata
     id="metadata4157">
    <rdf:RDF>
      <cc:Work
         rdf:about="">
        <dc:format>image/svg+xml</dc:format>
        <dc:type
           rdf:resource="http://purl.org/dc/dcmitype/StillImage" />
        <dc:title></dc:title>
      </cc:Work>
    </rdf:RDF>
  </metadata>
  <g
     inkscape:label="Layer 1"
     inkscape:groupmode="layer"
     id="layer1">
    <rect
       rx="0"
       ry="3.9999969"
       y="830.7865"
       x="1331.6699"
       height="7.9999938"
       width="348.05905"
       id="rect4776"
       style="opacity:1;fill:#008080;fill-opacity:1;stroke:#000000;stroke-width:0;stroke-linecap:round;stroke-linejoin:round;stroke-miterlimit:4;stroke-dasharray:none;stroke-opacity:1" />
    <rect
       style="opacity:1;fill:#ffffff;fill-opacity:1;stroke:#000000;stroke-width:2;stroke-linejoin:round;stroke-miterlimit:4;stroke-dasharray:none;stroke-opacity:1"
       id="rect4700"
       width="606.37018"
       height="679.58514"
       x="108.88381"
       y="292.05283" />
    <path
       style="fill:none;fill-rule:evenodd;stroke:#000000;stroke-width:2;stroke-linecap:butt;stroke-linejoin:miter;stroke-miterlimit:4;stroke-dasharray:none;stroke-opacity:1"
       d="m 67.583058,340.86282 715.254012,0 -1.8773,-1.87731"
       id="path4704"
       inkscape:connector-curvature="0" />
    <path
       inkscape:connector-curvature="0"
       id="path4706"
       d="m 50.687292,842.10381 715.253998,0 -1.87731,-1.87731"
       style="fill:none;fill-rule:evenodd;stroke:#000000;stroke-width:2;stroke-linecap:butt;stroke-linejoin:miter;stroke-miterlimit:4;stroke-dasharray:none;stroke-opacity:1" />
    <path
       style="fill:none;fill-rule:evenodd;stroke:#000000;stroke-width:2;stroke-linecap:butt;stroke-linejoin:miter;stroke-miterlimit:4;stroke-dasharray:none;stroke-opacity:1"
       d="m 60.073823,421.58703 715.253997,0 -1.87731,-1.87731"
       id="path4708"
       inkscape:connector-curvature="0" />
    <path
       inkscape:connector-curvature="0"
       id="path4710"
       d="m 183.97609,149.3775 715.254,0 -1.87731,-1.87731"
       style="fill:none;fill-rule:evenodd;stroke:#000000;stroke-width:2;stroke-linecap:butt;stroke-linejoin:miter;stroke-miterlimit:4;stroke-dasharray:none;stroke-opacity:1" />
    <g
       id="g4722"
       transform="translate(0,-84.478819)">
      <path
         d="m 1002.077,337.10818 a 16.895769,16.895769 0 0 1 -16.86498,16.89575 16.895769,16.895769 0 0 1 -16.9264,-16.83426 16.895769,16.895769 0 0 1 16.80343,-16.957 16.895769,16.895769 0 0 1 16.98755,16.77255"
         sodipodi:open="true"
         sodipodi:end="6.2759073"
         sodipodi:start="0"
         sodipodi:ry="16.895769"
         sodipodi:rx="16.895769"
         sodipodi:cy="337.10818"
         sodipodi:cx="985.18127"
         sodipodi:type="arc"
         id="path4712"
         style="opacity:1;fill:#ff0000;fill-opacity:1;stroke:#000000;stroke-width:0;stroke-linejoin:round;stroke-miterlimit:4;stroke-dasharray:none;stroke-opacity:1" />
      <path
         style="opacity:1;fill:#008000;fill-opacity:1;stroke:#000000;stroke-width:0;stroke-linejoin:round;stroke-miterlimit:4;stroke-dasharray:none;stroke-opacity:1"
         id="path4718"
         sodipodi:type="arc"
         sodipodi:cx="939.38971"
         sodipodi:cy="337.10818"
         sodipodi:rx="16.895769"
         sodipodi:ry="16.895769"
         sodipodi:start="0"
         sodipodi:end="6.2759073"
         sodipodi:open="true"
         d="m 956.28548,337.10818 a 16.895769,16.895769 0 0 1 -16.86503,16.89575 16.895769,16.895769 0 0 1 -16.9264,-16.83426 16.895769,16.895769 0 0 1 16.80343,-16.957 16.895769,16.895769 0 0 1 16.98755,16.77255" />
      <path
         d="m 910.49391,337.10818 a 16.895769,16.895769 0 0 1 -16.86502,16.89575 16.895769,16.895769 0 0 1 -16.9264,-16.83426 16.895769,16.895769 0 0 1 16.80343,-16.957 16.895769,16.895769 0 0 1 16.98755,16.77255"
         sodipodi:open="true"
         sodipodi:end="6.2759073"
         sodipodi:start="0"
         sodipodi:ry="16.895769"
         sodipodi:rx="16.895769"
         sodipodi:cy="337.10818"
         sodipodi:cx="893.59814"
         sodipodi:type="arc"
         id="path4720"
         style="opacity:1;fill:#ffff00;fill-opacity:1;stroke:#000000;stroke-width:0;stroke-linejoin:round;stroke-miterlimit:4;stroke-dasharray:none;stroke-opacity:1" />
    </g>
    <g
       id="g4743"
       style="fill:#000000"
       transform="matrix(0.88626215,0,0,0.88625659,493.22533,-247.59605)">
      <path
         id="rect4738"
         d="m -448.67969,-1068.9141 0,315.93558 138.05469,0 0,-315.93558 -138.05469,0 z m 177.87891,0 0,315.93558 138.05469,0 0,-315.93558 -138.05469,0 z"
         style="opacity:1;fill:#000000;fill-opacity:1;stroke:#000000;stroke-width:0;stroke-linejoin:round;stroke-miterlimit:4;stroke-dasharray:none;stroke-opacity:1"
         inkscape:connector-curvature="0" />
    </g>
    <path
       style="opacity:1;fill:#000000;fill-opacity:1;stroke:#000000;stroke-width:0;stroke-linejoin:round;stroke-miterlimit:4;stroke-dasharray:none;stroke-opacity:1"
       d="m 123.58198,-610.84727 -0.3125,0.1991 0,279.6015 0.3125,0.1991 219.68749,-139.9998 -219.68749,-139.9999 z"
       id="rect4729"
       inkscape:connector-curvature="0" />
    <g
       id="g4754"
       transform="matrix(-1,0,0,-1,622.48394,-1400.995)"
       style="fill:#000000">
      <path
         style="opacity:1;fill:#000000;fill-opacity:1;stroke:#000000;stroke-width:0;stroke-linejoin:round;stroke-miterlimit:4;stroke-dasharray:none;stroke-opacity:1"
         d="m 714.25994,-1070.1475 -0.27732,0.1991 0,279.6015 0.27732,0.19916 194.95453,-139.99988 -194.95453,-139.99988 z"
         id="path4756"
         inkscape:connector-curvature="0" />
      <rect
         style="opacity:1;fill:#000000;fill-opacity:1;stroke:#000000;stroke-width:0;stroke-linejoin:round;stroke-miterlimit:4;stroke-dasharray:none;stroke-opacity:1"
         id="rect4758"
         width="47.246204"
         height="280"
         x="629.21448"
         y="-1070.1476" />
    </g>
    <g
       transform="translate(224.05502,459.30017)"
       id="g4760"
       style="fill:#000000">
      <path
         inkscape:connector-curvature="0"
         id="path4762"
         d="m 714.25994,-1070.1475 -0.27732,0.1991 0,279.6015 0.27732,0.19916 194.95453,-139.99988 -194.95453,-139.99988 z"
         style="opacity:1;fill:#000000;fill-opacity:1;stroke:#000000;stroke-width:0;stroke-linejoin:round;stroke-miterlimit:4;stroke-dasharray:none;stroke-opacity:1" />
      <rect
         y="-1070.1476"
         x="629.21448"
         height="280"
         width="47.246204"
         id="rect4764"
         style="opacity:1;fill:#000000;fill-opacity:1;stroke:#000000;stroke-width:0;stroke-linejoin:round;stroke-miterlimit:4;stroke-dasharray:none;stroke-opacity:1" />
    </g>
    <rect
       style="opacity:1;fill:#000000;fill-opacity:1;stroke:#000000;stroke-width:0;stroke-linejoin:round;stroke-miterlimit:4;stroke-dasharray:none;stroke-opacity:1"
       id="rect4768"
       width="280"
       height="280"
       x="473.2695"
       y="-610.84741" />
    <path
       style="opacity:1;fill:#00ffff;fill-opacity:1;stroke:#000000;stroke-width:0;stroke-linecap:round;stroke-linejoin:round;stroke-miterlimit:4;stroke-dasharray:none;stroke-opacity:1"
       d="m 1335.6699,830.7865 c -2.216,0 -4,1.784 -4,4 0,2.216 1.784,4 4,4 l 19.4961,0 a 7.4999948,7.4999943 0 0 1 -1.1601,-3.97266 7.4999948,7.4999943 0 0 1 1.166,-4.02734 l -19.502,0 z"
       id="path4788"
       inkscape:connector-curvature="0" />
    <path
       d="m 1369.0059,834.7865 a 7.4999948,7.4999943 0 0 1 -7.4864,7.49998 7.4999948,7.4999943 0 0 1 -7.5136,-7.47269 7.4999948,7.4999943 0 0 1 7.459,-7.52717 7.4999948,7.4999943 0 0 1 7.5408,7.44529"
       sodipodi:open="true"
       sodipodi:end="6.2759073"
       sodipodi:start="0"
       sodipodi:ry="7.4999943"
       sodipodi:rx="7.4999948"
       sodipodi:cy="834.7865"
       sodipodi:cx="1361.5059"
       sodipodi:type="arc"
       id="path4783"
       style="opacity:1;fill:#2ca02c;fill-opacity:1;stroke:#000000;stroke-width:0;stroke-linecap:round;stroke-linejoin:round;stroke-miterlimit:4;stroke-dasharray:none;stroke-opacity:1" />
  </g>
</svg>
